<svg width="189" height="171" viewBox="0 0 189 171" fill="none" xmlns="http://www.w3.org/2000/svg">
<g id="undraw_mobile_ux_re_59hr 1" clip-path="url(#clip0_6_8)">
<path id="Path 2389" d="M180.484 58.3388L179.646 58.0584L187.343 35.1971C188.525 31.688 188.257 27.8557 186.598 24.5431C184.94 21.2305 182.027 18.7091 178.501 17.5335L178.5 17.5333L129.823 1.30908C126.296 0.133476 122.445 0.399998 119.115 2.05001C115.786 3.70003 113.252 6.59837 112.071 10.1074L112.071 10.1081L69.8475 135.527C69.2625 137.264 69.0271 139.1 69.1549 140.928C69.2827 142.756 69.771 144.541 70.5921 146.181C71.4132 147.821 72.5509 149.284 73.9403 150.487C75.3297 151.69 76.9436 152.608 78.6898 153.19L78.6904 153.191L127.367 169.416C130.893 170.591 134.745 170.325 138.074 168.674C141.403 167.024 143.937 164.126 145.118 160.617L174.167 74.3326L175.005 74.6121L180.484 58.3388Z" fill="#3F3D56"/>
<path id="Path 2390" d="M177.876 21.1553L171.522 19.0374C171.575 19.8476 171.426 20.6581 171.089 21.3976C170.752 22.1371 170.238 22.7828 169.591 23.2779C168.944 23.773 168.185 24.1023 167.381 24.2367C166.576 24.3712 165.751 24.3066 164.977 24.0488L137.091 14.7537C136.318 14.4957 135.62 14.0523 135.059 13.4626C134.498 12.873 134.092 12.1552 133.875 11.3724C133.659 10.5897 133.64 9.76603 133.818 8.97399C133.997 8.18195 134.369 7.44583 134.901 6.83048L128.967 4.8523C126.333 3.97444 123.457 4.17357 120.971 5.40588C118.485 6.63818 116.592 8.80272 115.71 11.4233L73.5472 136.658C72.665 139.278 72.8651 142.14 74.1035 144.614C75.342 147.088 77.5173 148.971 80.151 149.849L129.062 166.152C131.696 167.03 134.572 166.831 137.058 165.599C139.544 164.366 141.436 162.202 142.319 159.581L184.48 34.3464C185.363 31.7258 185.162 28.8637 183.924 26.3899C182.685 23.9161 180.51 22.0332 177.876 21.1553L177.876 21.1553Z" fill="white"/>
<path id="Path 2391" d="M165.644 63.1701L113.447 45.7716C113.191 45.6858 112.98 45.5025 112.859 45.2618C112.739 45.0211 112.719 44.7426 112.805 44.4875L117.142 31.6035C117.228 31.3486 117.413 31.1381 117.655 31.0182C117.896 30.8983 118.176 30.8788 118.433 30.9639L170.63 48.3627C170.886 48.4484 171.098 48.6317 171.218 48.8724C171.339 49.1131 171.358 49.3916 171.273 49.6467L166.935 62.5303C166.849 62.7852 166.665 62.9957 166.423 63.1156C166.181 63.2355 165.901 63.255 165.645 63.1699L165.644 63.1701ZM118.303 31.349C118.149 31.298 117.981 31.3097 117.836 31.3817C117.691 31.4536 117.58 31.5799 117.529 31.7329L113.191 44.6165C113.14 44.7696 113.152 44.9366 113.224 45.0811C113.296 45.2255 113.423 45.3354 113.577 45.3868L165.774 62.7856C165.928 62.8367 166.096 62.825 166.241 62.753C166.386 62.681 166.497 62.5547 166.548 62.4018L170.887 49.5188C170.938 49.3658 170.926 49.1987 170.854 49.0543C170.782 48.9099 170.655 48.7999 170.501 48.7485L118.303 31.349Z" fill="#3F3D56"/>
<path id="Path 2392" d="M148.483 114.147L96.2859 96.7479C96.0297 96.6622 95.8182 96.4789 95.6977 96.2382C95.5772 95.9975 95.5575 95.719 95.6431 95.4639L103.672 71.616C103.758 71.3611 103.942 71.1506 104.184 71.0307C104.426 70.9108 104.706 70.8913 104.962 70.9764L157.16 88.3746C157.416 88.4603 157.627 88.6436 157.748 88.8843C157.868 89.1251 157.888 89.4035 157.802 89.6586L149.773 113.507C149.687 113.762 149.503 113.972 149.261 114.092C149.019 114.212 148.739 114.232 148.483 114.147ZM104.833 71.3609C104.679 71.3098 104.511 71.3216 104.366 71.3935C104.221 71.4655 104.11 71.5918 104.058 71.7447L96.0297 95.5927C95.9784 95.7457 95.9902 95.9128 96.0625 96.0572C96.1348 96.2016 96.2618 96.3116 96.4155 96.363L148.613 113.762C148.767 113.813 148.935 113.801 149.08 113.729C149.225 113.657 149.335 113.531 149.387 113.378L157.416 89.5296C157.468 89.3766 157.456 89.2095 157.383 89.0651C157.311 88.9207 157.184 88.8107 157.03 88.7593L104.833 71.3609Z" fill="#3F3D56"/>
<path id="Path 2393" d="M158.522 83.0471L135.324 75.3133C135.068 75.2276 134.856 75.0443 134.736 74.8036C134.615 74.5629 134.596 74.2844 134.681 74.0293L139.019 61.1457C139.105 60.8908 139.289 60.6803 139.531 60.5604C139.773 60.4405 140.053 60.4209 140.309 60.5061L163.508 68.2396C163.764 68.3253 163.975 68.5087 164.096 68.7494C164.216 68.9901 164.236 69.2685 164.151 69.5236L159.813 82.4073C159.727 82.6624 159.543 82.8732 159.301 82.9931C159.059 83.1131 158.778 83.1325 158.522 83.0471ZM140.179 60.8917C140.026 60.8406 139.858 60.8523 139.713 60.9243C139.567 60.9963 139.457 61.1226 139.405 61.2755L135.068 74.1592C135.017 74.3122 135.028 74.4793 135.101 74.6237C135.173 74.7681 135.3 74.8781 135.454 74.9295L158.652 82.6622C158.806 82.7132 158.974 82.7015 159.119 82.6295C159.264 82.5576 159.375 82.4313 159.427 82.2783L163.764 69.3947C163.815 69.2416 163.804 69.0745 163.731 68.9301C163.659 68.7857 163.532 68.6757 163.378 68.6243L140.179 60.8917Z" fill="#E6E6E6"/>
<path id="Path 2394" d="M108.993 135.643L85.7952 127.911C85.539 127.825 85.3275 127.642 85.207 127.401C85.0865 127.16 85.0669 126.882 85.1524 126.627L93.246 102.586C93.3321 102.331 93.5164 102.121 93.7583 102.001C94.0002 101.881 94.28 101.861 94.5364 101.946L117.735 109.679C117.991 109.765 118.203 109.948 118.323 110.189C118.444 110.43 118.463 110.708 118.378 110.963L110.284 135.004C110.198 135.259 110.013 135.469 109.771 135.589C109.53 135.709 109.25 135.728 108.993 135.643ZM94.4061 102.331C94.2523 102.28 94.0844 102.292 93.9393 102.364C93.7941 102.436 93.6836 102.562 93.6319 102.715L85.5382 126.755C85.4869 126.908 85.4987 127.076 85.571 127.22C85.6433 127.364 85.7702 127.474 85.9239 127.526L109.123 135.259C109.277 135.31 109.445 135.298 109.59 135.226C109.735 135.154 109.845 135.028 109.897 134.875L117.991 110.834C118.042 110.681 118.03 110.514 117.958 110.37C117.886 110.225 117.759 110.115 117.605 110.064L94.4061 102.331Z" fill="#E6E6E6"/>
<path id="Path 2395" d="M137.605 145.18L114.406 137.448C114.15 137.362 113.938 137.179 113.818 136.938C113.697 136.697 113.678 136.419 113.763 136.164L121.857 112.123C121.943 111.868 122.127 111.657 122.369 111.538C122.611 111.418 122.891 111.398 123.147 111.483L146.346 119.216C146.602 119.302 146.814 119.485 146.934 119.726C147.055 119.967 147.075 120.245 146.989 120.5L138.896 144.541C138.809 144.796 138.625 145.006 138.383 145.126C138.141 145.246 137.862 145.266 137.605 145.18ZM123.018 111.868C122.864 111.817 122.696 111.829 122.551 111.901C122.406 111.973 122.295 112.099 122.244 112.252L114.15 136.293C114.099 136.446 114.111 136.613 114.183 136.757C114.255 136.901 114.382 137.011 114.536 137.063L137.735 144.796C137.889 144.847 138.056 144.835 138.202 144.763C138.347 144.691 138.457 144.565 138.509 144.412L146.602 120.371C146.654 120.218 146.642 120.051 146.57 119.907C146.497 119.762 146.37 119.652 146.217 119.601L123.018 111.868Z" fill="#E6E6E6"/>
<path id="Ellipse 477" d="M109.842 86.1304C112.135 86.1304 113.994 84.2804 113.994 81.9984C113.994 79.7164 112.135 77.8664 109.842 77.8664C107.548 77.8664 105.689 79.7164 105.689 81.9984C105.689 84.2804 107.548 86.1304 109.842 86.1304Z" fill="#8FE1D7"/>
<path id="Path 2396" d="M119.814 82.4178C119.64 82.3598 119.45 82.373 119.286 82.4544C119.121 82.5358 118.996 82.6789 118.938 82.8521C118.88 83.0253 118.893 83.2144 118.975 83.3779C119.057 83.5414 119.2 83.6658 119.374 83.7239L150.312 94.036C150.398 94.0647 150.489 94.0763 150.58 94.07C150.67 94.0637 150.759 94.0397 150.84 93.9994C150.922 93.9591 150.994 93.9032 151.054 93.835C151.114 93.7668 151.159 93.6875 151.188 93.6017C151.217 93.516 151.228 93.4254 151.222 93.3352C151.216 93.245 151.192 93.1569 151.151 93.0759C151.111 92.995 151.055 92.9228 150.986 92.8634C150.917 92.804 150.838 92.7587 150.752 92.73L119.814 82.4178Z" fill="#E6E6E6"/>
<path id="Path 2397" d="M118.496 86.3356C118.41 86.3069 118.319 86.2953 118.228 86.3016C118.137 86.3079 118.049 86.3319 117.967 86.3722C117.886 86.4125 117.813 86.4684 117.754 86.5366C117.694 86.6048 117.648 86.6841 117.62 86.7699C117.591 86.8556 117.579 86.9462 117.585 87.0364C117.592 87.1266 117.616 87.2147 117.656 87.2957C117.697 87.3766 117.753 87.4488 117.822 87.5082C117.89 87.5676 117.97 87.6129 118.056 87.6416L131.368 92.0791C131.455 92.1078 131.546 92.1194 131.636 92.1131C131.727 92.1068 131.816 92.0829 131.897 92.0425C131.978 92.0022 132.051 91.9463 132.11 91.8781C132.17 91.8099 132.216 91.7306 132.245 91.6449C132.273 91.5591 132.285 91.4685 132.279 91.3783C132.272 91.2881 132.248 91.2 132.208 91.119C132.167 91.0381 132.111 90.9659 132.043 90.9065C131.974 90.8472 131.894 90.8018 131.808 90.7731L118.496 86.3356Z" fill="#E6E6E6"/>
<path id="Path 2398" d="M104.273 88.5612C103.774 88.3948 103.269 88.5524 103.148 88.9134C103.027 89.2743 103.334 89.7017 103.834 89.8681L146.518 104.096C147.017 104.262 147.522 104.105 147.643 103.744C147.764 103.383 147.457 102.955 146.957 102.789L104.273 88.5612Z" fill="#E6E6E6"/>
<path id="Path 2399" d="M102.954 92.4794C102.455 92.3131 101.95 92.4706 101.829 92.8316C101.708 93.1925 102.015 93.62 102.515 93.7863L145.199 108.014C145.698 108.18 146.203 108.023 146.324 107.662C146.445 107.301 146.138 106.874 145.638 106.707L102.954 92.4794Z" fill="#E6E6E6"/>
<path id="Ellipse 478" d="M124.217 44.7089C126.511 44.7089 128.37 42.859 128.37 40.5769C128.37 38.2949 126.511 36.445 124.217 36.445C121.924 36.445 120.065 38.2949 120.065 40.5769C120.065 42.859 121.924 44.7089 124.217 44.7089Z" fill="#8FE1D7"/>
<path id="Path 2400" d="M134.19 40.996C134.104 40.9673 134.013 40.9557 133.922 40.962C133.831 40.9682 133.743 40.9922 133.661 41.0326C133.58 41.0729 133.507 41.1287 133.448 41.197C133.388 41.2652 133.342 41.3445 133.314 41.4302C133.285 41.516 133.273 41.6065 133.279 41.6968C133.286 41.787 133.31 41.8751 133.35 41.956C133.391 42.037 133.447 42.1092 133.516 42.1686C133.584 42.2279 133.664 42.2733 133.75 42.302L164.688 52.6141C164.774 52.6428 164.865 52.6544 164.955 52.6481C165.046 52.6419 165.135 52.6179 165.216 52.5776C165.297 52.5372 165.37 52.4814 165.43 52.4131C165.489 52.3449 165.535 52.2656 165.564 52.1799C165.593 52.0941 165.604 52.0036 165.598 51.9133C165.592 51.8231 165.567 51.735 165.527 51.6541C165.486 51.5731 165.43 51.5009 165.362 51.4415C165.293 51.3822 165.213 51.3368 165.127 51.3081L134.19 40.996Z" fill="#E6E6E6"/>
<path id="Path 2401" d="M132.871 44.9141C132.785 44.8854 132.694 44.8739 132.603 44.8801C132.512 44.8864 132.424 44.9104 132.342 44.9507C132.261 44.991 132.189 45.0469 132.129 45.1151C132.069 45.1834 132.024 45.2626 131.995 45.3484C131.966 45.4341 131.954 45.5247 131.961 45.6149C131.967 45.7052 131.991 45.7933 132.032 45.8742C132.072 45.9552 132.128 46.0274 132.197 46.0867C132.265 46.1461 132.345 46.1914 132.431 46.2202L145.744 50.6576C145.83 50.6864 145.921 50.6979 146.012 50.6916C146.102 50.6854 146.191 50.6614 146.272 50.6211C146.353 50.5807 146.426 50.5249 146.486 50.4566C146.545 50.3884 146.591 50.3091 146.62 50.2234C146.649 50.1376 146.66 50.0471 146.654 49.9568C146.648 49.8666 146.624 49.7785 146.583 49.6976C146.542 49.6166 146.486 49.5444 146.418 49.485C146.349 49.4257 146.27 49.3803 146.183 49.3516L132.871 44.9141Z" fill="#E6E6E6"/>
<path id="Path 2402" d="M129.89 73.5055L108.127 66.2516L116.22 59.1319C116.365 59.0042 116.542 58.9168 116.732 58.8784C116.921 58.84 117.118 58.8521 117.301 58.9132C117.485 58.9744 117.649 59.0826 117.777 59.227C117.906 59.3714 117.993 59.5468 118.032 59.7356L118.95 64.2355L124.829 59.0634C125.011 58.9037 125.231 58.7943 125.469 58.7463C125.706 58.6983 125.952 58.7134 126.182 58.79C126.412 58.8666 126.618 59.0021 126.778 59.1828C126.939 59.3635 127.049 59.5831 127.097 59.8194L129.89 73.5055ZM108.927 66.09L129.35 72.8977L126.697 59.9011C126.663 59.7346 126.586 59.5799 126.472 59.4526C126.359 59.3253 126.214 59.2299 126.052 59.1759C125.891 59.122 125.717 59.1113 125.55 59.1451C125.382 59.1789 125.227 59.256 125.099 59.3685L118.691 65.0052L117.632 59.8166C117.608 59.6976 117.553 59.587 117.472 59.4961C117.391 59.4051 117.288 59.3369 117.172 59.2983C117.056 59.2597 116.932 59.2522 116.813 59.2763C116.693 59.3005 116.582 59.3556 116.491 59.436L108.927 66.09Z" fill="#E6E6E6"/>
<path id="Path 2404" d="M129.911 73.5101L106.712 65.7774C106.456 65.6917 106.245 65.5084 106.124 65.2677C106.004 65.027 105.984 64.7485 106.07 64.4934L110.407 51.6097C110.493 51.3548 110.677 51.1443 110.919 51.0244C111.161 50.9045 111.441 50.885 111.697 50.9702L134.896 58.703C135.152 58.7888 135.364 58.9721 135.485 59.2128C135.605 59.4535 135.625 59.732 135.539 59.9871L131.202 72.8705C131.115 73.1254 130.931 73.3359 130.689 73.4558C130.447 73.5757 130.168 73.5952 129.911 73.5101ZM111.568 51.3546C111.414 51.3036 111.246 51.3153 111.101 51.3873C110.956 51.4592 110.845 51.5855 110.794 51.7385L106.457 64.6222C106.405 64.7752 106.417 64.9423 106.489 65.0867C106.562 65.2311 106.689 65.3411 106.842 65.3925L130.041 73.1254C130.195 73.1765 130.363 73.1647 130.508 73.0928C130.653 73.0208 130.764 72.8945 130.815 72.7415L135.153 59.8579C135.204 59.7048 135.192 59.5377 135.12 59.3933C135.048 59.2489 134.921 59.1389 134.767 59.0875L111.568 51.3546Z" fill="#E6E6E6"/>
<path id="Path 2405" d="M97.8096 108.551C97.7234 108.523 97.6323 108.511 97.5416 108.517C97.4508 108.523 97.3622 108.547 97.2807 108.587C97.1993 108.628 97.1266 108.684 97.0669 108.752C97.0071 108.82 96.9615 108.9 96.9326 108.985C96.9037 109.071 96.8921 109.162 96.8985 109.252C96.9048 109.342 96.929 109.431 96.9696 109.512C97.0102 109.593 97.0665 109.665 97.1351 109.724C97.2038 109.783 97.2836 109.829 97.3699 109.857L110.682 114.295C110.856 114.353 111.046 114.339 111.21 114.258C111.374 114.176 111.499 114.033 111.558 113.86C111.616 113.687 111.603 113.498 111.521 113.335C111.439 113.172 111.296 113.047 111.122 112.989L97.8096 108.551Z" fill="#E6E6E6"/>
<path id="Path 2406" d="M96.5144 112.399C96.4282 112.37 96.3371 112.358 96.2464 112.364C96.1556 112.37 96.067 112.394 95.9855 112.435C95.9041 112.475 95.8314 112.531 95.7717 112.599C95.712 112.667 95.6663 112.747 95.6374 112.833C95.6085 112.918 95.5969 113.009 95.6033 113.099C95.6096 113.19 95.6338 113.278 95.6744 113.359C95.715 113.44 95.7713 113.512 95.84 113.571C95.9086 113.631 95.9884 113.676 96.0747 113.705L109.387 118.143C109.561 118.2 109.751 118.187 109.915 118.105C110.079 118.024 110.203 117.881 110.262 117.708C110.32 117.535 110.307 117.347 110.225 117.183C110.144 117.02 110.001 116.895 109.827 116.837L96.5144 112.399Z" fill="#E6E6E6"/>
<path id="Path 2408" d="M134.331 138.575C134.505 138.633 134.695 138.62 134.859 138.538C135.023 138.457 135.148 138.314 135.206 138.141C135.265 137.968 135.251 137.779 135.17 137.615C135.088 137.452 134.945 137.327 134.771 137.269L121.458 132.832C121.284 132.774 121.094 132.787 120.93 132.869C120.766 132.95 120.641 133.093 120.583 133.266C120.525 133.439 120.538 133.628 120.62 133.792C120.701 133.955 120.845 134.08 121.019 134.138L134.331 138.575Z" fill="#E6E6E6"/>
<path id="Path 2409" d="M135.626 134.728C135.712 134.756 135.803 134.768 135.894 134.762C135.985 134.756 136.074 134.732 136.155 134.692C136.236 134.651 136.309 134.595 136.369 134.527C136.429 134.459 136.474 134.379 136.503 134.294C136.532 134.208 136.544 134.117 136.537 134.027C136.531 133.937 136.507 133.848 136.466 133.767C136.425 133.686 136.369 133.614 136.301 133.555C136.232 133.496 136.152 133.45 136.066 133.422L122.753 128.984C122.667 128.955 122.576 128.944 122.485 128.95C122.395 128.956 122.306 128.98 122.224 129.02C122.143 129.061 122.07 129.116 122.011 129.185C121.951 129.253 121.905 129.332 121.876 129.418C121.847 129.504 121.836 129.595 121.842 129.685C121.849 129.775 121.873 129.863 121.913 129.944C121.954 130.025 122.01 130.098 122.079 130.157C122.148 130.216 122.227 130.262 122.314 130.29L135.626 134.728Z" fill="#E6E6E6"/>
<path id="Path 2409_2" d="M156.418 73.1023C156.504 73.1312 156.595 73.1428 156.686 73.1366C156.777 73.1304 156.866 73.1065 156.947 73.0662C157.028 73.0259 157.101 72.97 157.161 72.9018C157.221 72.8335 157.266 72.7542 157.295 72.6683C157.324 72.5825 157.336 72.4919 157.329 72.4016C157.323 72.3113 157.299 72.2231 157.258 72.1421C157.217 72.0611 157.161 71.9889 157.093 71.9295C157.024 71.8702 156.944 71.8249 156.858 71.7963L143.545 67.3588C143.459 67.3299 143.368 67.3183 143.277 67.3245C143.187 67.3307 143.098 67.3546 143.016 67.3949C142.935 67.4352 142.862 67.4911 142.803 67.5594C142.743 67.6276 142.697 67.7069 142.668 67.7928C142.639 67.8786 142.628 67.9692 142.634 68.0595C142.641 68.1498 142.665 68.238 142.705 68.319C142.746 68.4 142.802 68.4722 142.871 68.5316C142.94 68.5909 143.019 68.6362 143.106 68.6648L156.418 73.1023Z" fill="#E6E6E6"/>
<path id="Path 2409_3" d="M155.312 76.1838C155.398 76.2127 155.489 76.2243 155.58 76.2182C155.671 76.212 155.759 76.188 155.841 76.1477C155.922 76.1074 155.995 76.0515 156.055 75.9833C156.114 75.915 156.16 75.8357 156.189 75.7499C156.218 75.664 156.229 75.5734 156.223 75.4831C156.217 75.3928 156.193 75.3046 156.152 75.2236C156.111 75.1426 156.055 75.0704 155.986 75.0111C155.918 74.9517 155.838 74.9064 155.752 74.8778L142.439 70.4403C142.353 70.4115 142.262 70.3998 142.171 70.406C142.08 70.4122 141.992 70.4361 141.91 70.4764C141.829 70.5167 141.756 70.5726 141.696 70.6409C141.637 70.7091 141.591 70.7885 141.562 70.8743C141.533 70.9601 141.522 71.0508 141.528 71.1411C141.534 71.2313 141.558 71.3195 141.599 71.4005C141.64 71.4815 141.696 71.5537 141.765 71.6131C141.833 71.6724 141.913 71.7177 141.999 71.7463L155.312 76.1838Z" fill="#E6E6E6"/>
<g id="Group 161">
<path id="Ellipse 476" d="M43.8259 68.5967C47.7143 68.5967 50.8664 65.4603 50.8664 61.5912C50.8664 57.7222 47.7143 54.5857 43.8259 54.5857C39.9376 54.5857 36.7855 57.7222 36.7855 61.5912C36.7855 65.4603 39.9376 68.5967 43.8259 68.5967Z" fill="#9F616A"/>
<path id="Path 2387" d="M39.7563 62.4579C40.3143 62.4247 40.8593 62.612 41.4136 62.6857C43.3966 62.9477 45.4592 61.516 45.8971 59.5739C45.9322 59.3152 46.0097 59.0641 46.1265 58.8304C46.4317 58.3346 47.1267 58.2401 47.6996 58.3541C48.2725 58.4681 48.8157 58.7349 49.3992 58.7655C50.3001 58.8126 51.165 58.2606 51.6452 57.5006C52.0989 56.7166 52.2918 55.8099 52.1964 54.9102L51.7644 55.3611C51.5889 54.9917 51.5212 54.5807 51.5688 54.1748C51.34 54.1142 51.0993 54.113 50.8698 54.1714C50.6403 54.2298 50.4298 54.3459 50.2583 54.5085C49.8774 54.5488 50.165 53.8057 49.8823 53.5489C49.7447 53.4648 49.5806 53.4343 49.4218 53.4633C48.6116 53.471 47.9562 52.8545 47.3178 52.3582C46.2117 51.5001 44.9182 50.913 43.5419 50.6444C42.6271 50.4667 41.6543 50.4384 40.7868 50.7764C40.0864 51.0892 39.4543 51.5354 38.9261 52.0897C37.5678 53.3882 36.365 54.9163 35.8001 56.705C35.3407 58.1701 35.3277 59.7378 35.7627 61.2103C35.9903 61.9748 36.6766 64.5937 37.6813 64.6547C38.9427 64.7319 38.1852 62.5513 39.7563 62.4579Z" fill="#2F2E41"/>
<path id="Path 111" d="M30.0069 117.68C30.3974 117.414 30.7244 117.066 30.9649 116.66C31.2054 116.254 31.3536 115.801 31.399 115.332C31.4444 114.863 31.386 114.39 31.2278 113.946C31.0696 113.502 30.8155 113.098 30.4834 112.763L31.7395 84.8624L25.3443 85.5765L25.7158 112.868C25.1859 113.46 24.8929 114.226 24.8922 115.019C24.8916 115.812 25.1834 116.578 25.7124 117.171C26.2414 117.765 26.9707 118.144 27.7622 118.238C28.5538 118.332 29.3524 118.134 30.0069 117.681L30.0069 117.68Z" fill="#A0616A"/>
<path id="Path 112" d="M41.6736 164.909L45.3134 165.546L48.9108 151.878L44.1418 150.938L41.6736 164.909Z" fill="#A0616A"/>
<path id="Path 113" d="M51.7135 170.142L40.2729 168.131L41.0537 163.733L48.0742 164.967C49.2465 165.173 50.2885 165.834 50.971 166.805C51.6535 167.775 51.9206 168.976 51.7135 170.142Z" fill="#2F2E41"/>
<path id="Path 114" d="M31.6831 166.722L35.3785 166.722L37.1365 152.539L31.6824 152.539L31.6831 166.722Z" fill="#A0616A"/>
<path id="Path 115" d="M42.5025 170.137L30.8877 170.137L30.8877 165.671L38.0151 165.671C39.2052 165.671 40.3466 166.142 41.1882 166.979C42.0298 167.817 42.5025 168.952 42.5025 170.137Z" fill="#2F2E41"/>
<path id="Path 116" d="M47.1022 161.638C47.0445 161.639 46.9869 161.635 46.9296 161.628L42.5797 161.272C42.1922 161.227 41.8387 161.03 41.5969 160.726C41.3551 160.421 41.2448 160.033 41.2903 159.648C41.2932 159.623 41.2967 159.599 41.3008 159.575L45.6202 138.374L42.9062 124.134C42.8842 124.019 42.8209 123.915 42.7278 123.842C42.6348 123.769 42.5183 123.732 42.4 123.738C42.2817 123.743 42.1695 123.792 42.0842 123.873C41.9989 123.955 41.9462 124.065 41.9359 124.182L37.9392 160.364C37.9019 160.745 37.7173 161.097 37.4243 161.346C37.1313 161.594 36.7529 161.719 36.3688 161.695L32.2708 161.543C31.9117 161.518 31.5743 161.363 31.3224 161.107C31.0705 160.851 30.9214 160.512 30.9034 160.154L31.2308 116.432L52.4771 113.79L53.9612 136.598L53.9553 136.622L48.5317 160.52C48.4537 160.839 48.2704 161.122 48.0112 161.325C47.752 161.528 47.4319 161.638 47.1022 161.638Z" fill="#2F2E41"/>
<path id="Path 117" d="M45.2115 119.759C44.0532 119.766 42.9172 119.443 41.9379 118.828C38.3515 116.597 34.2781 117.484 32.169 118.211C31.9598 118.284 31.7366 118.309 31.5163 118.284C31.296 118.259 31.0842 118.185 30.8968 118.067C30.7115 117.952 30.555 117.796 30.4389 117.611C30.3228 117.427 30.2501 117.218 30.2263 117.002L26.392 82.9198C25.7492 77.2095 29.2062 71.8409 34.6116 70.1545C34.8147 70.0911 35.0211 70.0311 35.231 69.9743C36.9131 69.5205 38.6747 69.4391 40.3919 69.7357C42.1091 70.0323 43.7401 70.6997 45.1701 71.691C46.6269 72.693 47.8452 74.0005 48.7395 75.5215C49.6337 77.0425 50.182 78.74 50.3459 80.4946L53.5753 114.804C53.5971 115.027 53.5668 115.251 53.4867 115.459C53.4066 115.668 53.2789 115.855 53.1137 116.006C51.9818 117.048 48.697 119.759 45.2115 119.759Z" fill="#8FE1D7"/>
<path id="Path 118" d="M33.5333 90.2281L24.8809 89.2817C24.6347 89.2547 24.3972 89.1753 24.1847 89.0488C23.9721 88.9223 23.7895 88.7518 23.6492 88.5487C23.5088 88.3457 23.4142 88.1149 23.3715 87.8721C23.3289 87.6294 23.3394 87.3803 23.4022 87.142L25.6046 78.7895C25.6711 78.1673 25.8601 77.5641 26.161 77.0145C26.4619 76.465 26.8686 75.9798 27.358 75.5868C27.8474 75.1937 28.4098 74.9005 29.0132 74.7239C29.6165 74.5472 30.2489 74.4906 30.8743 74.5573C31.4996 74.624 32.1056 74.8126 32.6577 75.1125C33.2097 75.4123 33.6969 75.8174 34.0915 76.3047C34.4861 76.792 34.7803 77.3519 34.9573 77.9524C35.1344 78.5529 35.1907 79.1823 35.1232 79.8044C35.1212 79.8224 35.1192 79.8404 35.1171 79.8583L35.444 88.4592C35.4532 88.7055 35.4091 88.9508 35.3144 89.1786C35.2198 89.4063 35.077 89.6111 34.8957 89.7789C34.7144 89.9468 34.4988 90.0738 34.2637 90.1513C34.0286 90.2288 33.7795 90.255 33.5333 90.2281Z" fill="#8FE1D7"/>
<path id="Path 119" d="M53.5392 116.486C53.8946 116.175 54.1771 115.79 54.3668 115.358C54.5565 114.926 54.6487 114.459 54.6371 113.988C54.6254 113.517 54.5101 113.054 54.2993 112.632C54.0885 112.21 53.7872 111.84 53.4169 111.546L51.2848 83.699L45.0183 85.1027L48.6969 112.222C48.2428 112.874 48.0448 113.668 48.1402 114.456C48.2357 115.243 48.6181 115.968 49.215 116.494C49.8118 117.019 50.5817 117.309 51.3787 117.307C52.1757 117.306 52.9445 117.014 53.5394 116.486L53.5392 116.486Z" fill="#A0616A"/>
<path id="Path 120" d="M42.6156 88.4775C42.4341 88.3096 42.2912 88.1047 42.1966 87.8768C42.102 87.6489 42.058 87.4033 42.0675 87.1569L42.3944 78.556C42.2597 77.3048 42.6282 76.0513 43.4193 75.0695C44.2105 74.0877 45.3599 73.4573 46.6167 73.3161C47.8734 73.1749 49.1352 73.5344 50.1264 74.3159C51.1177 75.0975 51.7577 76.2376 51.9069 77.4873L54.1092 85.8397C54.1721 86.0781 54.1825 86.3271 54.1399 86.5699C54.0973 86.8126 54.0026 87.0434 53.8623 87.2464C53.7219 87.4495 53.5393 87.6201 53.3267 87.7466C53.1142 87.873 52.8768 87.9525 52.6306 87.9794L43.9781 88.9258C43.7319 88.9529 43.4827 88.9268 43.2476 88.8492C43.0124 88.7717 42.7969 88.6446 42.6156 88.4766L42.6156 88.4775Z" fill="#8FE1D7"/>
</g>
<path id="Rectangle 256" d="M164.204 170.143L0.91748 170.143L0.91748 170.583L164.204 170.583L164.204 170.143Z" fill="#CACACA"/>
</g>
<defs>
<clipPath id="clip0_6_8">
<rect width="187.156" height="170" fill="white" transform="translate(0.91748 0.58252)"/>
</clipPath>
</defs>
</svg>
